<?xml version="1.0" encoding="UTF-8"?>
<svg width="90px" height="113px" viewBox="0 0 90 113" xmlns="http://www.w3.org/2000/svg" xmlns:xlink="http://www.w3.org/1999/xlink" version="1.1">
 <!-- Generated by Pixelmator Pro Demo 2.0.6 -->
 <path id="Pfad" d="M76.227 32.637 C74.493 30.634 72.411 29.645 69.984 29.67 69.92 29.67 69.856 29.67 69.792 29.67 69.445 27.135 68.508 24.804 66.979 22.674 L66.959 22.654 C64.555 19.403 61.658 17.81 58.269 17.876 57.458 17.878 56.667 17.968 55.898 18.146 55.706 17.85 55.5 17.535 55.283 17.202 55.248 17.163 55.217 17.124 55.186 17.086 53.685 14.94 51.283 13.867 47.978 13.868 46.135 13.792 44.259 14.441 42.352 15.814 41.974 15.158 41.557 14.529 41.1 13.926 40.88 13.612 40.597 13.253 40.252 12.846 40.124 12.698 39.982 12.563 39.827 12.441 39.789 12.412 39.744 12.38 39.692 12.344 36.775 9.156 33.876 7.594 31.003 7.662 28.028 7.495 25.144 9.03 22.349 12.267 L22.331 12.287 C17.587 17.585 16.649 24.31 19.518 32.463 19.321 32.644 19.122 32.83 18.92 33.022 L18.94 33.022 C14.615 37.168 12.475 41.729 12.522 46.704 12.427 50.217 14.199 54.213 17.841 58.69 L17.861 58.71 C19.91 61.363 23.082 63.585 27.38 65.377 26.803 66.458 26.54 67.543 26.59 68.634 26.433 72.619 28.789 75.805 33.663 78.193 L33.643 78.173 C36.988 79.852 40.669 80.944 44.685 81.448 L44.703 81.448 C48.786 81.936 52.897 81.487 57.036 80.099 L57.056 80.079 C61.566 78.635 64.063 75.159 64.552 69.654 65.657 69.091 66.814 68.358 68.021 67.457 L68.041 67.438 C72.466 64.336 74.066 59.121 72.839 51.791 73.45 51.254 74.067 50.637 74.69 49.94 L74.71 49.94 C77.454 46.881 78.783 43.702 78.699 40.401 L78.699 40.363 C78.633 36.984 77.823 34.421 76.27 32.674 76.251 32.665 76.239 32.652 76.227 32.637 Z M55.57 39.709 C55.592 39.671 55.618 39.633 55.647 39.594 55.8 39.337 55.956 39.08 56.109 38.823 57.265 36.903 58.081 34.88 58.556 32.753 58.905 31.204 59.078 29.611 59.076 27.974 59.075 26.31 58.85 24.717 58.402 23.195 60.037 23.305 61.457 24.172 62.661 25.796 L62.681 25.816 C63.98 27.636 64.629 29.678 64.627 31.944 64.626 34.632 63.918 37.138 62.508 39.459 L62.526 39.439 C61.057 41.8 59.163 43.015 56.841 43.081 55.91 43.082 55.217 42.787 54.761 42.195 L54.761 42.156 C54.595 41.897 54.465 41.608 54.375 41.289 54.786 40.809 55.185 40.282 55.57 39.709 Z M44.201 32.31 C44.233 32.203 44.258 32.101 44.278 32.001 44.329 31.719 44.38 31.436 44.431 31.153 L44.393 31.288 C44.894 29.184 45.074 27.063 44.932 24.929 L44.932 24.91 C44.858 23.632 44.673 22.354 44.373 21.075 45.63 19.909 46.831 19.28 47.976 19.186 49.232 19.188 50.188 19.515 50.848 20.169 L50.906 20.227 C50.918 20.247 50.931 20.265 50.945 20.285 51.175 20.643 51.401 20.977 51.62 21.287 L51.62 21.306 C51.87 21.658 52.096 21.986 52.294 22.289 52.31 22.321 52.329 22.353 52.352 22.385 52.411 22.536 52.488 22.683 52.583 22.828 52.615 22.932 52.652 23.035 52.698 23.136 53.407 24.634 53.761 26.246 53.758 27.973 53.756 29.214 53.621 30.421 53.355 31.596 53.007 33.168 52.41 34.666 51.562 36.086 51.408 36.342 51.253 36.599 51.099 36.857 50.62 37.541 50.106 38.119 49.558 38.591 L49.578 38.591 C48.433 39.553 47.13 40.035 45.665 40.036 44.676 40.036 43.944 39.701 43.469 39.034 L43.449 39.034 C42.971 38.174 42.734 37.055 42.737 35.681 43.315 34.714 43.803 33.59 44.201 32.31 Z M26.356 15.775 L26.376 15.756 C27.894 13.994 29.41 13.068 30.922 12.981 32.507 13.124 34.157 14.146 35.875 16.045 35.959 16.132 36.05 16.215 36.145 16.295 36.228 16.363 36.305 16.428 36.377 16.487 36.519 16.663 36.64 16.823 36.743 16.969 36.77 17.001 36.796 17.033 36.82 17.065 37.591 18.068 38.208 19.18 38.671 20.399 38.788 20.802 38.904 21.213 39.017 21.633 39.35 22.834 39.548 24.035 39.615 25.236 L39.615 25.255 C39.729 26.866 39.6 28.465 39.229 30.054 39.216 30.099 39.204 30.144 39.191 30.189 39.148 30.421 39.104 30.652 39.056 30.883 38.982 31.114 38.906 31.339 38.824 31.557 38.336 30.671 37.662 29.9 36.801 29.245 36.781 29.234 36.762 29.222 36.744 29.205 35.606 28.35 34.237 27.798 32.64 27.548 32.86 27.019 33.194 26.248 33.641 25.235 33.942 24.558 33.961 23.877 33.7 23.193 33.433 22.513 32.965 22.025 32.292 21.729 31.616 21.427 30.936 21.408 30.249 21.671 29.57 21.939 29.082 22.407 28.786 23.078 27.743 25.427 27.19 26.846 27.128 27.336 27.118 27.419 27.112 27.503 27.108 27.586 27.099 27.685 27.093 27.782 27.088 27.875 27.042 27.889 26.996 27.901 26.954 27.914 26.924 27.92 26.892 27.927 26.858 27.934 25.94 28.218 25.015 28.623 24.082 29.148 22.599 23.824 23.356 19.366 26.356 15.775 Z M64.857 63.18 L64.837 63.2 C62.119 65.214 59.936 65.907 58.285 65.282 57.635 64.937 56.96 64.872 56.262 65.089 55.559 65.303 55.033 65.733 54.683 66.38 54.338 67.028 54.274 67.703 54.491 68.403 54.706 69.105 55.137 69.632 55.781 69.983 56.743 70.581 57.783 70.928 58.903 71.023 58.314 73.006 57.121 74.355 55.318 75.07 L55.338 75.051 C51.982 76.179 48.649 76.551 45.338 76.169 L45.318 76.169 C41.941 75.746 38.845 74.833 36.029 73.432 L36.011 73.413 C33.428 72.149 32.059 70.557 31.906 68.634 31.969 68.164 32.187 67.683 32.561 67.189 33.913 67.579 35.338 67.939 36.839 68.268 37.554 68.422 38.223 68.3 38.843 67.902 39.467 67.508 39.858 66.956 40.019 66.245 40.174 65.529 40.052 64.861 39.653 64.241 39.258 63.619 38.708 63.227 37.995 63.066 30.212 61.362 24.881 58.799 22.001 55.377 L21.981 55.357 C19.315 52.083 17.933 49.198 17.838 46.705 17.892 43.15 19.485 39.874 22.618 36.877 23.164 36.35 23.711 35.874 24.256 35.451 24.274 35.438 24.294 35.426 24.313 35.412 24.388 35.359 24.459 35.301 24.525 35.238 25.872 34.182 27.19 33.444 28.475 33.022 L28.379 33.042 C28.824 32.916 29.267 32.82 29.708 32.753 29.743 32.755 29.774 32.755 29.805 32.753 30.046 32.731 30.296 32.717 30.556 32.714 31.792 32.715 32.814 32.985 33.619 33.524 L33.581 33.485 C34.191 33.949 34.48 34.604 34.448 35.45 34.453 35.837 34.407 36.21 34.313 36.568 L34.293 36.626 34.293 36.646 C34.023 37.44 33.534 38.185 32.83 38.881 L32.83 38.9 C31.135 40.611 29.92 41.858 29.186 42.639 28.933 42.748 28.697 42.902 28.474 43.101 27.968 43.558 27.679 44.122 27.607 44.797 27.532 45.475 27.691 46.091 28.089 46.647 28.492 47.198 29.026 47.545 29.688 47.688 30.638 47.966 31.928 47.818 33.562 47.245 L33.601 47.225 C34.373 46.942 34.938 46.782 35.296 46.743 36.952 46.794 38.667 47.473 40.442 48.786 L40.46 48.806 C42.084 50.043 43.03 51.322 43.293 52.641 43.39 53.364 43.731 53.948 44.314 54.395 44.898 54.846 45.553 55.027 46.28 54.934 47.003 54.837 47.587 54.497 48.034 53.913 48.484 53.329 48.665 52.674 48.573 51.946 48.353 49.602 47.024 47.387 44.585 45.298 44.933 45.337 45.292 45.357 45.663 45.357 47.191 45.357 48.623 45.082 49.961 44.528 50.069 44.718 50.186 44.904 50.308 45.088 51.653 47.297 53.829 48.401 56.84 48.402 57.134 48.406 57.423 48.4 57.707 48.382 57.936 50.073 58.796 51.512 60.29 52.698 L60.309 52.717 C61.824 53.976 63.737 54.605 66.052 54.606 66.63 54.615 67.208 54.557 67.786 54.433 68.096 58.375 67.119 61.292 64.857 63.18 Z M73.376 40.48 C73.332 42.51 72.451 44.481 70.735 46.397 L70.755 46.397 C69.983 47.243 69.224 47.917 68.482 48.42 L68.423 48.458 C68.374 48.491 68.329 48.523 68.288 48.555 67.537 49.02 66.792 49.264 66.053 49.287 65.09 49.288 64.285 49.051 63.645 48.573 L63.625 48.554 C63.214 48.23 62.995 47.831 62.97 47.359 62.968 47.239 62.968 47.142 62.97 47.07 62.987 47.027 63.006 46.982 63.027 46.935 63.104 46.784 63.168 46.629 63.22 46.472 64.641 45.465 65.913 44.058 67.036 42.253 L67.054 42.233 C68.405 40.008 69.285 37.657 69.695 35.18 69.786 35.119 69.875 35.049 69.965 34.968 L69.985 34.987 C70.83 35.012 71.561 35.372 72.181 36.067 72.936 37.087 73.334 38.545 73.377 40.441 L73.377 40.48 Z" fill="#000000" fill-opacity="1" stroke="none"/>
</svg>
