<?xml version="1.0" encoding="UTF-8"?>
<svg width="90px" height="113px" viewBox="0 0 90 113" xmlns="http://www.w3.org/2000/svg" xmlns:xlink="http://www.w3.org/1999/xlink" version="1.1">
 <!-- Generated by Pixelmator Pro Demo 2.0.6 -->
 <path id="Pfad" d="M5.991 53.204 C7.313 57.332 10.637 59.481 15.966 59.65 16.134 59.656 16.298 59.645 16.456 59.617 16.913 60.31 17.454 60.977 18.081 61.62 20.421 64.041 23.171 65.244 26.333 65.228 26.653 65.235 27.163 65.18 27.858 65.065 28.21 65.008 28.434 64.975 28.532 64.966 L28.712 64.966 C29.276 66.018 30.069 67.072 31.091 68.132 L31.107 68.148 C33.566 70.711 36.24 71.968 39.13 71.921 41.653 71.91 43.862 71.206 45.757 69.805 47.937 68.202 48.987 66.338 48.908 64.211 48.908 64.175 48.908 64.136 48.908 64.096 51.668 64.004 54.183 63.266 56.455 61.882 L56.472 61.864 C59.509 59.959 60.981 57.635 60.885 54.892 60.903 53.945 60.75 53.033 60.425 52.151 63.123 52.657 65.879 53.093 68.694 53.464 74.51 54.227 78.459 54.445 80.539 54.12 80.55 54.114 80.561 54.108 80.572 54.103 83.27 53.685 85.343 52.181 86.79 49.592 L86.773 49.608 C88.299 47.058 88.267 44.177 86.674 40.962 85.387 37.799 81.22 35.956 74.173 35.434 74.091 35.427 74.008 35.422 73.927 35.417 78.851 33.898 81.848 31.988 82.917 29.692 L82.934 29.675 C84.654 26.476 84.888 23.9 83.64 21.949 82.623 20.06 81.098 18.76 79.063 18.044 L79.095 18.044 C77.362 17.398 75.389 17.114 73.172 17.191 L73.139 17.191 C71.126 17.209 67.101 18.254 61.066 20.323 56.34 21.941 52.419 23.516 49.302 25.049 48.525 23.654 47.441 22.234 46.054 20.784 42.525 17.099 38.642 15.28 34.406 15.32 31.41 15.241 28.004 16.746 24.185 19.832 21.923 21.588 20.033 24.294 18.507 27.952 17.587 27.473 16.663 27.254 15.736 27.296 12.349 27.166 9.625 29.172 7.566 33.317 6.166 36.16 5.252 39.289 4.826 42.702 4.388 46.191 4.776 49.691 5.991 53.204 Z M39.179 61.914 L39.197 61.914 C40.73 62.717 42.338 63.301 44.019 63.671 44.111 63.859 44.23 64.041 44.38 64.212 44.302 64.927 43.864 65.577 43.067 66.165 41.942 66.994 40.631 67.403 39.129 67.395 37.432 67.348 35.846 66.555 34.371 65.015 L34.356 65 C32.993 63.587 32.276 62.209 32.206 60.864 32.206 60.058 32.407 59.375 32.813 58.813 L32.829 58.797 C33.106 58.463 33.444 58.289 33.847 58.273 34.035 58.272 34.16 58.272 34.224 58.273 34.244 58.277 34.259 58.283 34.275 58.29 L34.209 58.29 C34.465 58.416 34.723 58.493 34.98 58.519 35.927 59.803 37.327 60.934 39.179 61.914 Z M11.634 35.322 C12.726 33.118 14.093 31.953 15.736 31.826 16.136 31.88 16.547 32.066 16.966 32.384 16.634 33.534 16.327 34.749 16.046 36.027 15.915 36.635 16.019 37.204 16.359 37.733 16.695 38.263 17.166 38.597 17.769 38.734 18.378 38.866 18.949 38.762 19.476 38.423 20.005 38.087 20.339 37.616 20.478 37.011 21.931 30.376 24.119 25.821 27.039 23.346 29.828 21.094 32.283 19.929 34.406 19.85 37.431 19.896 40.22 21.252 42.773 23.919 L42.773 23.902 C44.392 25.595 45.48 27.231 46.037 28.807 46.043 28.824 46.049 28.84 46.055 28.856 46.225 29.464 46.315 30.071 46.317 30.677 46.317 31.719 46.092 32.571 45.645 33.237 45.252 33.745 44.698 33.986 43.987 33.958 42.915 33.931 41.936 33.482 41.051 32.614 39.61 31.186 38.555 30.158 37.885 29.529 37.795 29.297 37.656 29.077 37.475 28.872 37.086 28.441 36.604 28.196 36.032 28.134 35.454 28.07 34.928 28.207 34.456 28.544 33.987 28.888 33.692 29.342 33.571 29.906 33.331 30.705 33.452 31.81 33.93 33.219 33.944 33.234 33.953 33.251 33.963 33.269 34.205 33.927 34.342 34.408 34.373 34.712 34.332 36.122 33.742 37.582 32.602 39.093 31.553 40.475 30.459 41.283 29.321 41.521 28.71 41.611 28.216 41.906 27.844 42.407 27.463 42.912 27.317 43.476 27.401 44.097 27.491 44.708 27.786 45.201 28.288 45.574 28.794 45.953 29.356 46.101 29.977 46.016 32.207 45.773 34.286 44.372 36.211 41.816 37.551 40.045 38.393 38.305 38.736 36.599 40.332 37.88 42.082 38.509 43.986 38.486 46.242 38.464 48.003 37.622 49.269 35.96 L49.287 35.927 C50.325 34.581 50.846 32.83 50.846 30.677 50.847 30.252 50.825 29.825 50.781 29.398 53.825 27.856 57.746 26.265 62.544 24.624 67.937 22.769 71.513 21.801 73.273 21.719 L73.305 21.719 C74.883 21.667 76.288 21.864 77.522 22.31 L77.555 22.31 C78.493 22.644 79.2 23.247 79.67 24.115 79.957 24.957 79.71 26.099 78.933 27.544 L78.95 27.529 C77.781 29.286 74.511 30.784 69.139 32.023 L69.156 32.007 C62.814 33.444 56.837 35.034 51.223 36.781 50.664 36.957 50.238 37.302 49.944 37.814 49.644 38.326 49.557 38.868 49.681 39.438 49.815 40.01 50.126 40.463 50.618 40.801 51.099 41.142 51.63 41.273 52.209 41.194 60.877 39.974 68.091 39.565 73.848 39.964 78.624 40.317 81.544 41.318 82.61 42.966 83.423 44.61 83.501 46.078 82.839 47.38 L82.822 47.396 C82.126 48.658 81.135 49.407 79.853 49.644 L79.885 49.626 C78.029 49.87 74.495 49.651 69.287 48.971 63.909 48.264 58.747 47.314 53.801 46.117 53.341 45.966 52.86 45.851 52.356 45.772 52.315 45.765 52.278 45.76 52.243 45.755 52.041 45.734 51.827 45.711 51.602 45.69 50.982 45.625 50.428 45.789 49.945 46.182 49.462 46.578 49.187 47.088 49.126 47.708 49.061 48.327 49.225 48.88 49.617 49.363 50.015 49.848 50.524 50.121 51.143 50.184 51.314 50.202 51.478 50.219 51.635 50.234 51.673 50.241 51.711 50.246 51.75 50.251 51.932 50.286 52.112 50.329 52.291 50.382 52.341 50.404 52.395 50.426 52.455 50.447 53.265 50.728 54.035 51.194 54.768 51.842 L54.785 51.859 C55.79 52.783 56.314 53.795 56.36 54.894 56.265 56.087 55.506 57.131 54.079 58.028 L54.097 58.011 C52.372 59.066 50.448 59.59 48.322 59.586 45.791 59.591 43.449 59.033 41.301 57.912 L41.317 57.912 C39.251 56.819 38.163 55.44 38.053 53.778 38.035 53.152 38.289 52.698 38.807 52.415 L38.791 52.433 C39.551 52.061 40.541 51.875 41.76 51.875 42.182 51.926 43.069 52.21 44.418 52.728 44.434 52.734 44.449 52.741 44.467 52.744 45.778 53.283 46.571 53.638 46.846 53.81 47.321 54.223 47.867 54.409 48.487 54.368 49.107 54.321 49.621 54.058 50.029 53.582 50.443 53.108 50.628 52.561 50.588 51.941 50.538 51.322 50.275 50.808 49.8 50.399 49.424 50.005 48.198 49.382 46.124 48.529 46.106 48.524 46.091 48.519 46.075 48.512 43.907 47.681 42.47 47.294 41.761 47.347 39.656 47.345 37.954 47.706 36.659 48.43 L36.641 48.447 C34.586 49.559 33.549 51.326 33.524 53.745 31.85 53.818 30.444 54.558 29.309 55.96 L29.291 55.978 C28.285 57.216 27.75 58.731 27.684 60.521 27.522 60.542 27.336 60.57 27.125 60.603 L27.109 60.603 C26.755 60.663 26.498 60.696 26.338 60.702 24.426 60.687 22.758 59.943 21.334 58.472 19.959 57.064 19.221 55.467 19.121 53.682 19.09 53.056 18.844 52.533 18.381 52.107 17.92 51.683 17.377 51.487 16.758 51.516 16.133 51.545 15.608 51.791 15.184 52.253 14.76 52.715 14.563 53.256 14.592 53.877 14.608 54.256 14.641 54.628 14.69 54.994 12.458 54.63 10.981 53.541 10.262 51.729 9.287 48.896 8.977 46.076 9.324 43.264 9.683 40.375 10.454 37.728 11.634 35.322 Z" fill="#000000" fill-opacity="1" stroke="none"/>
</svg>
