<?xml version="1.0" encoding="UTF-8"?>
<svg width="90px" height="113px" viewBox="0 0 90 113" xmlns="http://www.w3.org/2000/svg" xmlns:xlink="http://www.w3.org/1999/xlink" version="1.1">
 <!-- Generated by Pixelmator Pro Demo 2.0.6 -->
 <path id="Pfad" d="M69.806 20.336 C68.7 20.147 67.656 20.168 66.678 20.4 66.638 18.948 66.57 17.493 66.47 16.038 L66.47 16.022 C66.288 13.868 65.402 12.083 63.809 10.665 62.168 9.202 60.259 8.543 58.081 8.693 56.362 8.808 54.866 9.401 53.591 10.472 53.478 9.659 53.363 9.107 53.254 8.82 L53.239 8.788 C52.39 6.516 50.926 4.778 48.843 3.575 L48.827 3.56 C46.575 2.237 44.131 2.146 41.497 3.287 L41.514 3.287 C38.835 4.35 37.211 6.654 36.639 10.2 L36.639 10.168 C36.54 10.687 36.467 11.258 36.414 11.884 36.178 11.732 35.925 11.593 35.661 11.467 L35.628 11.451 C33.688 10.572 31.706 10.47 29.678 11.146 29.666 11.152 29.649 11.157 29.631 11.162 27.61 11.896 26.118 13.19 25.157 15.043 L25.157 15.027 C24.238 16.642 23.912 18.904 24.178 21.81 L24.162 21.81 C24.334 23.922 26.252 32.673 29.919 48.065 29.844 48.022 29.769 47.98 29.695 47.937 L29.711 47.937 C27.83 46.827 25.762 45.977 23.504 45.386 L23.52 45.402 C20.999 44.699 18.311 44.945 15.454 46.14 12.063 47.526 10.608 50.124 11.091 53.934 L11.091 53.952 C11.452 57.621 13.884 59.995 18.388 61.071 21.26 61.75 23.163 62.424 24.097 63.092 L24.114 63.108 C24.957 63.85 25.855 65.063 26.808 66.749 26.813 66.761 26.817 66.771 26.824 66.781 28.138 69.191 30.137 71.068 32.822 72.41 L32.806 72.41 C33.598 72.817 34.41 73.175 35.244 73.485 34.377 74.821 33.987 75.986 34.073 76.981 33.943 80.298 35.904 82.949 39.958 84.936 L39.942 84.919 C42.704 86.317 45.767 87.227 49.132 87.646 L49.149 87.646 C52.547 88.054 55.959 87.679 59.38 86.524 L59.397 86.507 C63.431 85.214 65.535 81.962 65.698 76.757 65.71 76.48 65.672 76.225 65.587 75.986 73.357 71.571 75.576 62.729 72.244 49.459 74.42 42.775 75.847 35.884 76.525 28.786 L76.525 28.771 C76.718 26.761 76.156 24.933 74.84 23.286 73.517 21.639 71.839 20.655 69.806 20.336 Z M67.834 48.659 C67.696 49.079 67.685 49.502 67.8 49.926 71.213 62.965 68.393 70.914 59.333 73.774 58.749 73.946 58.311 74.298 58.018 74.833 57.726 75.371 57.667 75.933 57.841 76.518 58.011 77.101 58.364 77.539 58.901 77.832 59.438 78.125 60 78.184 60.584 78.01 60.783 77.954 60.98 77.895 61.178 77.832 60.846 80.115 59.773 81.618 57.954 82.34 L57.971 82.323 C55.198 83.261 52.434 83.572 49.679 83.254 46.844 82.903 44.26 82.145 41.933 80.977 L41.916 80.96 C39.767 79.908 38.627 78.583 38.499 76.982 38.61 76.413 39.059 75.654 39.848 74.705 40.173 74.761 40.499 74.809 40.825 74.85 41.43 74.925 41.975 74.775 42.462 74.401 42.943 74.024 43.221 73.532 43.296 72.925 43.373 72.32 43.222 71.775 42.847 71.29 42.47 70.808 41.978 70.53 41.372 70.455 39.026 70.167 36.845 69.505 34.829 68.467 L34.812 68.467 C32.975 67.549 31.6 66.271 30.69 64.632 L30.675 64.602 C29.373 62.294 28.121 60.66 26.922 59.694 L26.906 59.677 C25.738 58.643 23.24 57.676 19.415 56.775 17.124 56.228 15.813 55.1 15.486 53.391 L15.486 53.375 C15.289 51.848 15.844 50.795 17.155 50.215 19.003 49.444 20.74 49.26 22.368 49.67 L22.383 49.687 C24.231 50.166 25.926 50.855 27.467 51.755 L27.483 51.755 C29.381 52.862 31.059 53.542 32.519 53.792 32.563 53.806 32.605 53.816 32.646 53.824 32.729 53.839 32.816 53.849 32.903 53.855 33.609 53.906 34.93 53.883 36.864 53.792 L36.896 53.792 C38.418 53.736 40.326 54.206 42.622 55.203 L42.622 55.219 C44.868 56.235 46.689 58.176 48.092 61.041 48.36 61.588 48.781 61.962 49.359 62.164 49.932 62.366 50.495 62.334 51.042 62.068 51.592 61.798 51.966 61.376 52.166 60.799 52.367 60.228 52.335 59.666 52.069 59.116 50.131 55.138 47.573 52.481 44.386 51.144 L44.386 51.161 C41.309 49.812 38.737 49.214 36.673 49.364 L36.641 49.364 C35.93 49.397 35.314 49.419 34.797 49.428 30.852 32.929 28.783 23.594 28.59 21.426 L28.573 21.426 C28.412 19.585 28.577 18.147 29.071 17.111 L29.071 17.095 C29.513 16.267 30.185 15.685 31.091 15.347 31.108 15.342 31.123 15.336 31.139 15.331 32.035 15.044 32.912 15.093 33.77 15.475 33.781 15.481 33.792 15.486 33.803 15.492 34.59 15.874 35.134 16.472 35.439 17.287 L35.423 17.272 C35.903 18.597 36.341 19.934 36.737 21.281 36.747 21.322 36.758 21.364 36.77 21.409 36.844 21.618 37.019 22.201 37.298 23.158 37.306 23.205 37.317 23.254 37.331 23.302 38.681 27.93 39.937 34.105 41.1 41.825 41.189 42.433 41.477 42.919 41.966 43.285 42.462 43.646 43.012 43.78 43.618 43.686 44.218 43.598 44.7 43.308 45.062 42.82 45.422 42.329 45.555 41.783 45.462 41.184 44.278 33.246 42.996 26.889 41.613 22.116 40.799 17.102 40.594 13.375 41.004 10.937 L41.004 10.905 C41.287 9.145 42.035 7.964 43.249 7.36 L43.266 7.36 C44.481 6.834 45.608 6.849 46.65 7.408 L46.63 7.394 C47.789 8.066 48.609 9.034 49.084 10.297 49.597 11.911 50.29 22.005 51.17 40.576 51.168 40.602 51.168 40.629 51.17 40.656 51.195 41.252 51.43 41.754 51.876 42.163 52.321 42.578 52.846 42.775 53.447 42.757 54.051 42.736 54.566 42.507 54.986 42.067 55.404 41.631 55.606 41.111 55.596 40.511 55.596 40.484 55.596 40.458 55.596 40.431 55.361 25.505 55.222 17.647 55.178 16.855 L55.178 16.823 C55.111 15.873 55.376 15.039 55.979 14.321 L55.996 14.305 C56.633 13.581 57.425 13.185 58.371 13.118 59.315 13.053 60.144 13.337 60.857 13.968 61.566 14.6 61.962 15.397 62.043 16.357 62.148 17.859 62.225 19.362 62.269 20.864 62.288 21.929 62.3 23.025 62.3 24.152 62.291 24.256 62.291 24.364 62.3 24.473 62.293 29.906 61.913 36.143 61.162 43.188 61.097 43.793 61.258 44.333 61.642 44.809 62.023 45.287 62.515 45.56 63.117 45.627 63.721 45.691 64.262 45.531 64.737 45.146 65.214 44.765 65.488 44.273 65.554 43.67 66.294 36.763 66.684 30.609 66.725 25.211 66.74 25.202 66.756 25.191 66.774 25.178 67.446 24.709 68.216 24.55 69.084 24.697 L69.1 24.697 C70.018 24.848 70.777 25.298 71.377 26.045 71.94 26.747 72.191 27.522 72.131 28.371 71.46 35.342 70.027 42.104 67.834 48.659 Z" fill="#000000" fill-opacity="1" stroke="none"/>
</svg>
